<svg width="20" height="20" viewBox="0 0 20 20" fill="none" xmlns="http://www.w3.org/2000/svg">
<rect x="13" y="13" width="6" height="2" rx="0.4" fill="black"/>
<rect x="15" y="11" width="2" height="6" rx="0.4" fill="black"/>
<path fill-rule="evenodd" clip-rule="evenodd" d="M14 11.8477C13.0353 11.2934 11.9282 11 10.7811 11H7.21901C5.58034 11 4.0222 11.5993 2.84495 12.7026L2.84483 12.7027C1.6654 13.8085 1 15.2976 1 16.8913C1 18.1156 2.04093 19 3.18385 19H14.8167C15.5718 19 16.2826 18.6135 16.6777 17.9979C16.652 17.9993 16.6261 18 16.6 18H15.4C14.7658 18 14.2301 17.5783 14.058 17H3.18385C3.11301 17 3.06096 16.9735 3.03061 16.9451C3.00129 16.9176 3 16.8982 3 16.8913C3 15.8717 3.42077 14.9043 4.2126 14.1619L4.21272 14.1618C5.00623 13.4182 6.07024 13 7.21901 13H10.7811C11.2088 13 11.6246 13.0579 12.019 13.1689C12.1291 12.5057 12.7055 12 13.4 12H14V11.8477Z" fill="black"/>
<path fill-rule="evenodd" clip-rule="evenodd" d="M8.99966 11C10.6545 11 12 9.56148 12 7.79299V6.20737C12 4.43881 10.6545 3 8.99966 3C7.34589 3 6 4.43881 6 6.20737V7.79299C6 9.56148 7.34589 11 8.99966 11Z" stroke="black" stroke-width="2" stroke-linejoin="round"/>
</svg>
