<svg width="28" height="28" viewBox="0 0 28 28" fill="none" xmlns="http://www.w3.org/2000/svg">
<rect opacity="0.01" width="28" height="28" fill="black"/>
<path fill-rule="evenodd" clip-rule="evenodd" d="M16.2428 24L14.7734 22.3751C17.0999 20.2501 18.6918 17.25 18.6918 13.875C18.6918 10.625 17.3448 7.62509 15.1409 5.62508L16.6101 4C19.1816 6.50002 20.7734 10 20.7734 13.875C20.7734 17.875 19.0591 21.5 16.2428 24Z" fill="#666666"/>
<path fill-rule="evenodd" clip-rule="evenodd" d="M7.62735 15.7332C6.75111 15.7332 6 14.982 6 14.1057C6 13.2294 6.75111 12.4783 7.62735 12.4783C8.50358 12.4783 9.2547 13.2294 9.2547 14.1057C9.2547 14.982 8.50358 15.7332 7.62735 15.7332ZM11.8831 19.7397L10.2557 18.1123C11.7579 17.236 12.7594 15.7338 12.7594 13.8559C12.7594 12.2287 11.8831 10.7264 10.6312 9.85014L12.2586 8.22266C13.886 9.47465 15.0127 11.6027 15.0127 13.8559C15.0127 16.2345 13.7609 18.3626 11.8831 19.7397Z" fill="#666666"/>
</svg>
