<svg xmlns="http://www.w3.org/2000/svg" width="24" height="24" viewBox="0 0 24 24" fill="none" class="chat-svg">
<rect opacity="0.01" width="24" height="24" fill="black"/>
<path fill-rule="evenodd" clip-rule="evenodd" d="M11.9927 22.5H17.5903C18.5864 22.5 19.4166 21.6699 19.4166 20.6737V19.4166C21.4089 17.4242 22.5 14.7915 22.5 11.9927C22.5 9.09903 21.3378 6.41884 19.2743 4.42648C17.2108 2.43413 14.4594 1.39051 11.5895 1.5091C6.13422 1.72257 1.72257 6.13422 1.5091 11.5895C1.39051 14.4594 2.43413 17.187 4.42648 19.2743C6.41884 21.3615 9.12275 22.5 11.9927 22.5ZM8.28667 13.2765C7.82801 13.5413 7.26292 13.5413 6.80427 13.2765C6.34561 13.0117 6.06306 12.5223 6.06306 11.9927C6.06306 11.4631 6.34561 10.9737 6.80427 10.7089C7.26292 10.4441 7.82801 10.4441 8.28667 10.7089C8.74533 10.9737 9.02788 11.4631 9.02788 11.9927C9.02788 12.5223 8.74533 13.0117 8.28667 13.2765ZM14.9575 11.9927C14.9575 12.8114 15.6212 13.4751 16.4399 13.4751C17.2586 13.4751 17.9223 12.8114 17.9223 11.9927C17.9223 11.4631 17.6398 10.9737 17.1811 10.7089C16.7225 10.4441 16.1574 10.4441 15.6987 10.7089C15.2401 10.9737 14.9575 11.4631 14.9575 11.9927ZM11.9927 13.4751C11.174 13.4751 10.5103 12.8114 10.5103 11.9927C10.5103 11.174 11.174 10.5103 11.9927 10.5103C12.8114 10.5103 13.4751 11.174 13.4751 11.9927C13.4751 12.8114 12.8114 13.4751 11.9927 13.4751Z" fill="#D8D8D8"/>
</svg>