<svg width="24" height="24" viewBox="0 0 24 24" fill="none" xmlns="http://www.w3.org/2000/svg">
<rect opacity="0.01" width="24" height="24" fill="black"/>
<path fill-rule="evenodd" clip-rule="evenodd" d="M14.5129 3.43843C13.3548 3.21318 12.0956 3.10001 10.7353 3.10001C9.37504 3.10001 8.11585 3.21318 6.95774 3.43843C5.79964 3.66367 4.88436 3.97023 4.21082 4.3559C3.53727 4.74157 3.19995 5.1602 3.19995 5.61179V6.86659C3.19995 7.31818 3.53727 7.73681 4.21082 8.12248C4.88436 8.50815 5.79964 8.81471 6.95774 9.03995C8.11585 9.2652 9.37504 9.37838 10.7353 9.37838C12.0956 9.37838 13.3548 9.2663 14.5129 9.04105C15.671 8.81471 16.5863 8.50925 17.2598 8.12358C17.9334 7.73791 18.2707 7.31928 18.2707 6.86769V5.61179C18.2707 5.1602 17.9334 4.74157 17.2598 4.3559C16.5863 3.97023 15.671 3.66367 14.5129 3.43843ZM15.0809 10.2123C13.7339 10.4936 12.2857 10.6343 10.7353 10.6343C9.18495 10.6343 7.73677 10.4936 6.38858 10.2123C5.04149 9.93106 3.97788 9.51572 3.19995 8.96634V10.6343C3.19995 11.0859 3.53727 11.5045 4.21082 11.8902C4.88546 12.2758 5.80074 12.5813 6.95774 12.8076C8.11585 13.0329 9.37504 13.1461 10.7353 13.1461C12.0956 13.1461 13.3548 13.0329 14.5118 12.8076C15.6699 12.5824 16.5852 12.2758 17.2587 11.8902C17.9323 11.5045 18.2696 11.0859 18.2696 10.6343V8.96634C17.4916 9.51572 16.428 9.93106 15.0809 10.2123ZM14.0316 19.9332C14.0316 20.0994 14.0504 20.2621 14.0862 20.4189C13.0478 20.5929 11.9306 20.6803 10.7353 20.6803C9.37504 20.6803 8.11585 20.5671 6.95774 20.3419C5.79964 20.1166 4.88436 19.8101 4.21082 19.4244C3.53727 19.0388 3.19995 18.6201 3.19995 18.1685V16.5006C3.97788 17.05 5.04149 17.4653 6.38858 17.7466C7.73677 18.0279 9.18495 18.1685 10.7353 18.1685C11.8907 18.1685 12.9893 18.0904 14.0316 17.9342V19.9332ZM10.7353 16.9126C11.9122 16.9126 13.0135 16.8287 14.0383 16.6602C14.0986 15.8783 14.5611 15.2167 15.2195 14.9011C15.2293 14.553 15.2974 14.2181 15.4144 13.9063C15.3053 13.9318 15.1941 13.9564 15.0809 13.98C13.7339 14.2613 12.2857 14.4019 10.7353 14.4019C9.18495 14.4019 7.73677 14.2613 6.38858 13.98C5.04149 13.6987 3.97788 13.2834 3.19995 12.734V14.4009C3.19995 14.8524 3.53727 15.2711 4.21082 15.6567C4.88436 16.0424 5.79964 16.349 6.95774 16.5742C8.11585 16.7995 9.37504 16.9126 10.7353 16.9126ZM16.0973 20.966H20.5583C21.0857 20.966 21.5252 20.5265 21.5033 19.8672V16.7687C21.5033 16.2193 21.0857 15.7359 20.5363 15.7359H20.2726C20.3166 15.626 20.3166 15.5161 20.3166 15.3623V14.9887C20.3166 13.8679 19.3936 12.9889 18.3168 12.9889C17.1961 12.9889 16.3171 13.9119 16.3171 14.9887V15.4282C16.3171 15.4831 16.328 15.5491 16.339 15.615L16.339 15.615C16.35 15.6809 16.361 15.7468 16.361 15.8018H16.0973C15.5699 15.8018 15.1304 16.2413 15.1304 16.8346V19.9332C15.1304 20.4825 15.5479 20.966 16.0973 20.966ZM17.9432 19.3838V18.4608C17.6795 18.3509 17.5037 18.0872 17.4818 17.8015C17.4818 17.362 17.8553 16.9885 18.2948 16.9885C18.7344 16.9885 19.1079 17.384 19.064 17.7576C19.064 18.0872 18.9102 18.307 18.6904 18.4608V19.3838C18.6904 19.6035 18.5366 19.7574 18.3168 19.7574C18.0971 19.7574 17.9432 19.6035 17.9432 19.3838ZM19.5255 14.9887C19.5255 14.3294 18.9761 13.802 18.3388 13.802C17.6795 13.802 17.1521 14.3514 17.1521 14.9887V15.8018H19.5474V14.9887H19.5255Z" fill="#1DBB88"/>
</svg>
