<?xml version="1.0" standalone="no"?><!DOCTYPE svg PUBLIC "-//W3C//DTD SVG 1.1//EN" "http://www.w3.org/Graphics/SVG/1.1/DTD/svg11.dtd"><svg t="1716967439765" class="icon" viewBox="0 0 1024 1024" version="1.1" xmlns="http://www.w3.org/2000/svg" p-id="4324" width="16" height="16" xmlns:xlink="http://www.w3.org/1999/xlink"><path d="M512 0a512 512 0 1 0 512 512A512 512 0 0 0 512 0z m0 947.2A435.2 435.2 0 1 1 947.2 512 435.712 435.712 0 0 1 512 947.2z" p-id="4325" fill="#000000"></path><path d="M738.304 303.616l-17.92-17.92a25.6 25.6 0 0 0-36.352 0L512 457.728 339.968 285.696a25.6 25.6 0 0 0-36.352 0l-17.92 17.92a25.6 25.6 0 0 0 0 36.352L457.728 512 285.696 684.032a25.6 25.6 0 0 0 0 36.352l17.92 17.92a25.6 25.6 0 0 0 36.352 0L512 566.272l172.032 172.032a25.6 25.6 0 0 0 36.352 0l17.92-17.92a25.6 25.6 0 0 0 0-36.352L566.272 512l172.032-172.032a25.6 25.6 0 0 0 0-36.352z" p-id="4326" fill="#000000"></path></svg>