<svg width="64" height="64" viewBox="0 0 64 64" fill="none" xmlns="http://www.w3.org/2000/svg">
<rect opacity="0.01" width="64" height="64" fill="black"/>
<g filter="url(#filter0_i_6197_15138)">
<path d="M31.0663 12.8C29.5759 12.8 28.106 12.453 26.773 11.7865L24.0892 10.4446C22.9783 9.88914 21.7534 9.59998 20.5115 9.59998H12.8C10.149 9.59998 8.00001 11.749 8.00001 14.4L8.0001 41.6C8.0001 43.3673 9.43279 44.8 11.2001 44.8H52.8C54.5673 44.8 56 43.3673 56 41.6V17.6C56 14.949 53.851 12.8 51.2 12.8H31.0663Z" fill="#2F77F1"/>
</g>
<g filter="url(#filter1_di_6197_15138)">
<path d="M11.2 19.2C8.54904 19.2 6.4 21.3491 6.40001 24L6.40011 49.6C6.40012 52.251 8.54915 54.4 11.2001 54.4H52.8C55.451 54.4 57.6 52.251 57.6 49.6L57.6 24C57.6 21.349 55.4509 19.2 52.8 19.2H11.2Z" fill="#6AABFF"/>
<path d="M11.2 19.2C8.54904 19.2 6.4 21.3491 6.40001 24L6.40011 49.6C6.40012 52.251 8.54915 54.4 11.2001 54.4H52.8C55.451 54.4 57.6 52.251 57.6 49.6L57.6 24C57.6 21.349 55.4509 19.2 52.8 19.2H11.2Z" fill="url(#paint0_linear_6197_15138)" fill-opacity="0.1"/>
</g>
<defs>
<filter id="filter0_i_6197_15138" x="8" y="9.59998" width="48" height="35.2" filterUnits="userSpaceOnUse" color-interpolation-filters="sRGB">
<feFlood flood-opacity="0" result="BackgroundImageFix"/>
<feBlend mode="normal" in="SourceGraphic" in2="BackgroundImageFix" result="shape"/>
<feColorMatrix in="SourceAlpha" type="matrix" values="0 0 0 0 0 0 0 0 0 0 0 0 0 0 0 0 0 0 127 0" result="hardAlpha"/>
<feOffset/>
<feGaussianBlur stdDeviation="0.8"/>
<feComposite in2="hardAlpha" operator="arithmetic" k2="-1" k3="1"/>
<feColorMatrix type="matrix" values="0 0 0 0 1 0 0 0 0 1 0 0 0 0 1 0 0 0 0.4 0"/>
<feBlend mode="normal" in2="shape" result="effect1_innerShadow_6197_15138"/>
</filter>
<filter id="filter1_di_6197_15138" x="4.80002" y="17.6" width="54.4" height="38.4" filterUnits="userSpaceOnUse" color-interpolation-filters="sRGB">
<feFlood flood-opacity="0" result="BackgroundImageFix"/>
<feColorMatrix in="SourceAlpha" type="matrix" values="0 0 0 0 0 0 0 0 0 0 0 0 0 0 0 0 0 0 127 0" result="hardAlpha"/>
<feOffset/>
<feGaussianBlur stdDeviation="0.8"/>
<feComposite in2="hardAlpha" operator="out"/>
<feColorMatrix type="matrix" values="0 0 0 0 0 0 0 0 0 0 0 0 0 0 0 0 0 0 0.1 0"/>
<feBlend mode="normal" in2="BackgroundImageFix" result="effect1_dropShadow_6197_15138"/>
<feBlend mode="normal" in="SourceGraphic" in2="effect1_dropShadow_6197_15138" result="shape"/>
<feColorMatrix in="SourceAlpha" type="matrix" values="0 0 0 0 0 0 0 0 0 0 0 0 0 0 0 0 0 0 127 0" result="hardAlpha"/>
<feOffset/>
<feGaussianBlur stdDeviation="0.8"/>
<feComposite in2="hardAlpha" operator="arithmetic" k2="-1" k3="1"/>
<feColorMatrix type="matrix" values="0 0 0 0 1 0 0 0 0 1 0 0 0 0 1 0 0 0 0.4 0"/>
<feBlend mode="normal" in2="shape" result="effect2_innerShadow_6197_15138"/>
</filter>
<linearGradient id="paint0_linear_6197_15138" x1="18.9277" y1="54.4" x2="18.9277" y2="19.2" gradientUnits="userSpaceOnUse">
<stop stop-color="#2D2D2D"/>
<stop offset="0.0594745" stop-color="#515151"/>
<stop offset="0.122325" stop-color="#7B7B7B"/>
<stop offset="0.6875" stop-color="#6AABFF"/>
</linearGradient>
</defs>
</svg>
