<svg width="17" height="16" viewBox="0 0 17 16" fill="none" xmlns="http://www.w3.org/2000/svg">
<path d="M8.49998 14.667C10.3409 14.667 12.0076 13.9208 13.214 12.7143C14.4204 11.5079 15.1666 9.84122 15.1666 8.00028C15.1666 6.15935 14.4204 4.49268 13.214 3.28624C12.0076 2.07981 10.3409 1.33362 8.49998 1.33362C6.65905 1.33362 4.99238 2.07981 3.78593 3.28624C2.57951 4.49268 1.83331 6.15935 1.83331 8.00028C1.83331 9.84122 2.57951 11.5079 3.78593 12.7143C4.99238 13.9208 6.65905 14.667 8.49998 14.667Z" stroke="#999999" stroke-width="1.33333" stroke-linejoin="round"/>
<path fill-rule="evenodd" clip-rule="evenodd" d="M8.49996 3.66675C8.96019 3.66675 9.33329 4.03985 9.33329 4.50008C9.33329 4.96031 8.96019 5.33341 8.49996 5.33341C8.03973 5.33341 7.66663 4.96031 7.66663 4.50008C7.66663 4.03985 8.03973 3.66675 8.49996 3.66675Z" fill="#999999"/>
<path d="M8.66664 11.3334V6.66675H8.3333H7.99997" stroke="#999999" stroke-width="1.33333" stroke-linecap="round" stroke-linejoin="round"/>
<path d="M7.49997 11.3336H9.8333" stroke="#999999" stroke-width="1.33333" stroke-linecap="round" stroke-linejoin="round"/>
</svg>
