<svg xmlns="http://www.w3.org/2000/svg" width="24" height="24" viewBox="0 0 24 24" fill="none"  class="me-svg">
<rect opacity="0.01" width="24" height="24" fill="black"/>
<path fill-rule="evenodd" clip-rule="evenodd" d="M16.4979 8.1039C16.4979 10.5532 14.5032 12.5455 12.0498 12.5455C9.59806 12.5455 7.60276 10.5532 7.60276 8.1039V5.90786C7.60276 3.45844 9.59806 1.46573 12.0498 1.46573C14.5032 1.46573 16.4979 3.45844 16.4979 5.90786V8.1039ZM14.4615 13.8769C16.3494 13.8769 18.1237 14.6108 19.4575 15.9431C20.7926 17.2762 21.5272 19.0482 21.5272 20.9332C21.5272 21.8152 20.8085 22.5327 19.9252 22.5327H4.1761C3.29176 22.5327 2.57336 21.8152 2.57336 20.9332C2.57336 19.0482 3.30864 17.2762 4.64308 15.9431C5.97714 14.6108 7.75216 13.8769 9.63908 13.8769H14.4615Z" fill="#D8D8D8"/>
</svg>