<svg class="video-svg" xmlns="http://www.w3.org/2000/svg" width="22" height="19" viewBox="0 0 22 19" fill="none">
<path fill-rule="evenodd" clip-rule="evenodd" d="M12.4666 5.94313C12.4666 8.13598 10.6807 9.9197 8.48422 9.9197C6.28919 9.9197 4.50281 8.13598 4.50281 5.94313V3.97702C4.50281 1.78407 6.28919 0 8.48422 0C10.6807 0 12.4666 1.78407 12.4666 3.97702V5.94313ZM10.6434 11.1116C12.3336 11.1116 13.9222 11.7687 15.1163 12.9615C16.3116 14.155 16.9693 15.7415 16.9693 17.4291C16.9693 18.2188 16.3258 18.8611 15.535 18.8611H1.43493C0.643181 18.8611 0 18.2188 0 17.4291C0 15.7415 0.658293 14.155 1.85301 12.9615C3.04739 11.7687 4.63656 11.1116 6.32591 11.1116H10.6434Z" fill="#D8D8D8"/>
<path fill-rule="evenodd" clip-rule="evenodd" d="M11.8711 8.03327C11.6305 7.57155 11.4945 7.0472 11.4945 6.4917V4.83487C11.4945 4.02806 11.7814 3.28693 12.2587 2.70791C12.3934 3.10663 12.4665 3.53347 12.4665 3.97703V5.94313C12.4665 6.70934 12.2484 7.4256 11.8711 8.03327ZM12.5753 8.95318C13.198 8.11071 13.5665 7.06951 13.5665 5.94313V3.97703C13.5665 3.25651 13.4157 2.57081 13.1441 1.94966C13.6442 1.65354 14.2274 1.48343 14.8496 1.48343C16.7006 1.48343 18.2055 2.98687 18.2055 4.83487V6.4917C18.2055 8.33962 16.7006 9.84276 14.8496 9.84276C13.973 9.84276 13.1736 9.50513 12.5753 8.95318ZM11.2723 11.1422C12.7248 11.2844 14.0715 11.9179 15.1163 12.9615C16.2994 14.1429 16.9558 15.7093 16.969 17.3777H8.90916C8.24196 17.3777 7.69995 16.8364 7.69995 16.171C7.69995 14.7488 8.2547 13.4119 9.26148 12.4061C9.83811 11.8302 10.5239 11.4025 11.2723 11.1422ZM14.0746 10.8472H16.6692C18.0935 10.8472 19.4322 11.4009 20.4385 12.4061C21.4458 13.4119 22 14.7488 22 16.171C22 16.8364 21.4577 17.3777 20.7913 17.3777H18.069C18.0557 15.4172 17.2833 13.5709 15.8937 12.1833L15.8935 12.1831C15.3506 11.6409 14.7374 11.1927 14.0746 10.8472Z" fill="#D8D8D8"/>
</svg>