<svg width="24" height="24" viewBox="0 0 24 24" fill="none" xmlns="http://www.w3.org/2000/svg">
<rect opacity="0.01" width="24" height="24" fill="black"/>
<path fill-rule="evenodd" clip-rule="evenodd" d="M11.8645 19.346H15.8881C16.5363 19.346 17.0636 18.7973 17.0636 18.1228C17.0636 17.6056 16.9942 17.0994 16.86 16.616C16.0997 17.1061 15.2989 17.5836 14.4653 18.0409C13.5914 18.5204 12.7206 18.9563 11.8645 19.346ZM17.6474 16.094C17.8518 16.7259 17.9603 17.3942 17.9647 18.0788H20.1956C20.7418 18.0788 21.1861 17.6164 21.1861 17.048C21.1861 15.9857 20.8388 14.9791 20.1997 14.1686C19.4284 14.8166 18.5725 15.4634 17.6474 16.094ZM19.7806 13.706C19.0652 14.3049 18.2736 14.9045 17.4186 15.4919C17.1203 14.8117 16.7043 14.1856 16.1819 13.6419C15.7369 13.1786 15.2342 12.7956 14.6909 12.5004H16.8174C17.9262 12.5004 18.9717 12.9273 19.7806 13.706ZM10.2699 19.346H4.33271C3.68384 19.346 3.15674 18.7973 3.15674 18.1228C3.15674 16.6812 3.69623 15.3261 4.67534 14.3066C5.65417 13.2877 6.95654 12.7264 8.34102 12.7264H11.8794C13.2645 12.7264 14.5664 13.2877 15.545 14.3066C16.0218 14.8027 16.3941 15.3784 16.6508 16.0048C15.8708 16.5116 15.045 17.0061 14.1818 17.4797C12.8529 18.2088 11.5347 18.8338 10.2699 19.346Z" fill="#1DBB88"/>
<path fill-rule="evenodd" clip-rule="evenodd" d="M10.3635 11.9005C12.1636 11.9005 13.6271 10.3001 13.6271 8.33253V6.56842C13.6271 4.60077 12.1636 3 10.3635 3C8.56458 3 7.10059 4.60077 7.10059 6.56842V8.33253C7.10059 10.3001 8.56458 11.9005 10.3635 11.9005Z" fill="#1DBB88"/>
<path d="M13.4624 10.8828C13.9728 10.1631 14.2747 9.27374 14.2747 8.31159V6.63214C14.2747 6.01662 14.1512 5.43084 13.9285 4.90023C14.3383 4.64731 14.8163 4.50201 15.3262 4.50201C16.8431 4.50201 18.0765 5.78625 18.0765 7.36481V8.78008C18.0765 10.3586 16.8431 11.6425 15.3262 11.6425C14.6078 11.6425 13.9528 11.3542 13.4624 10.8828Z" fill="#1DBB88"/>
<path fill-rule="evenodd" clip-rule="evenodd" d="M18.6007 6.58405C18.6398 6.57678 18.6787 6.56969 18.7175 6.5628C19.8883 6.35449 20.8637 6.3233 21.5905 6.45542C22.326 6.58912 22.7131 6.86932 22.8762 7.1922C23.0393 7.51509 23.0418 8.00631 22.7312 8.71398C22.4242 9.41331 21.8474 10.2337 21.0199 11.1218C19.369 12.8936 16.8027 14.8472 13.7094 16.5443C10.6161 18.2415 7.61834 19.3407 5.2825 19.7563C4.1117 19.9646 3.13633 19.9958 2.40948 19.8637C1.67396 19.73 1.28685 19.4498 1.12379 19.1269C0.960722 18.804 0.958236 18.3128 1.26884 17.6051C1.57579 16.9058 2.15258 16.0854 2.98008 15.1973C4.631 13.4255 7.19732 11.4719 10.2906 9.77476C10.8506 9.46749 11.4075 9.17982 11.9579 8.91226C11.9565 8.86987 11.9557 8.82586 11.9557 8.78008V7.75026C11.2508 8.08199 10.5361 8.44548 9.81819 8.83937C6.65687 10.5739 3.99627 12.5894 2.25255 14.4608C1.38272 15.3943 0.720264 16.314 0.346602 17.1653C-0.0233947 18.0083 -0.14784 18.8783 0.226359 19.6193C0.600558 20.3602 1.35908 20.7458 2.23524 20.905C3.12008 21.0659 4.22245 21.0172 5.45314 20.7983C7.92029 20.3593 11.0205 19.2142 14.1818 17.4797C17.3431 15.7452 20.0037 13.7296 21.7474 11.8583C22.6173 10.9248 23.2797 10.0051 23.6534 9.15374C24.0234 8.31076 24.1478 7.44077 23.7736 6.69982C23.3994 5.95887 22.6409 5.57333 21.7648 5.41407C20.8799 5.25323 19.7775 5.30184 18.5469 5.5208C18.4378 5.54021 18.3274 5.561 18.2159 5.58316C18.3909 5.88978 18.5222 6.22653 18.6007 6.58405Z" fill="#1DBB88"/>
</svg>
