<svg width="24" height="24" viewBox="0 0 24 24" fill="none" xmlns="http://www.w3.org/2000/svg">
<path d="M20.8125 11.372H12.5C12.1851 11.372 11.883 11.5015 11.6603 11.7319C11.4376 11.9623 11.3125 12.2748 11.3125 12.6007V18.7441H4.1875C3.87256 18.7441 3.57051 18.6146 3.34781 18.3842C3.12511 18.1538 3 17.8413 3 17.5154V5.22867C3 4.90281 3.12511 4.59029 3.34781 4.35987C3.57051 4.12945 3.87256 4 4.1875 4H19.625C19.9399 4 20.242 4.12945 20.4647 4.35987C20.6874 4.59029 20.8125 4.90281 20.8125 5.22867V11.372ZM6.5625 18.7441L10.125 18.7502L7.60691 21.7857C7.52793 21.8809 7.42266 21.9488 7.30525 21.9803C7.18784 22.0118 7.06392 22.0054 6.95017 21.9618C6.83641 21.9182 6.73828 21.8397 6.66898 21.7367C6.59967 21.6337 6.56251 21.5112 6.5625 21.3857V18.7441ZM13.0938 12.6007H21.4062C21.5637 12.6007 21.7147 12.6654 21.8261 12.7806C21.9374 12.8959 22 13.0521 22 13.215V19.3584C22 19.4391 21.9846 19.519 21.9548 19.5935C21.925 19.668 21.8812 19.7358 21.8261 19.7928C21.771 19.8499 21.7055 19.8951 21.6335 19.926C21.5614 19.9569 21.4842 19.9727 21.4062 19.9727H13.0938C13.0158 19.9727 12.9386 19.9569 12.8665 19.926C12.7945 19.8951 12.729 19.8499 12.6739 19.7928C12.6188 19.7358 12.575 19.668 12.5452 19.5935C12.5154 19.519 12.5 19.4391 12.5 19.3584V13.215C12.5 13.1344 12.5154 13.0545 12.5452 12.9799C12.575 12.9054 12.6188 12.8377 12.6739 12.7806C12.729 12.7236 12.7945 12.6783 12.8665 12.6475C12.9386 12.6166 13.0158 12.6007 13.0938 12.6007ZM15.7656 17.5154C16.0018 17.5154 16.2284 17.4183 16.3954 17.2455C16.5624 17.0727 16.6563 16.8383 16.6563 16.5939C16.6563 16.3495 16.5624 16.1151 16.3954 15.9423C16.2284 15.7695 16.0018 15.6724 15.7656 15.6724C15.5294 15.6724 15.3029 15.7695 15.1359 15.9423C14.9688 16.1151 14.875 16.3495 14.875 16.5939C14.875 16.8383 14.9688 17.0727 15.1359 17.2455C15.3029 17.4183 15.5294 17.5154 15.7656 17.5154ZM18.7344 17.5154C18.9706 17.5154 19.1971 17.4183 19.3641 17.2455C19.5312 17.0727 19.625 16.8383 19.625 16.5939C19.625 16.3495 19.5312 16.1151 19.3641 15.9423C19.1971 15.7695 18.9706 15.6724 18.7344 15.6724C18.4982 15.6724 18.2716 15.7695 18.1046 15.9423C17.9376 16.1151 17.8438 16.3495 17.8438 16.5939C17.8438 16.8383 17.9376 17.0727 18.1046 17.2455C18.2716 17.4183 18.4982 17.5154 18.7344 17.5154Z" fill="#666666"/>
</svg>
