<svg width="41" height="40" viewBox="0 0 41 40" fill="none" xmlns="http://www.w3.org/2000/svg">
<path d="M20.67 39.44C20.03 39.44 19.4 39.28 18.82 38.96L7.40002 32.71C6.16002 32.03 5.40002 30.74 5.40002 29.33V7.91003C5.40002 6.14003 6.60002 4.60003 8.32002 4.17003L19.74 1.33003C20.35 1.18003 20.99 1.18003 21.6 1.33003L33.02 4.17003C34.74 4.60003 35.94 6.14003 35.94 7.91003V29.33C35.94 30.74 35.17 32.03 33.94 32.71L22.52 38.96C21.94 39.28 21.31 39.44 20.67 39.44ZM20.67 4.22003C20.6 4.22003 20.53 4.23003 20.46 4.25003L9.05002 7.08003C8.67002 7.17003 8.40002 7.52003 8.40002 7.91003V29.33C8.40002 29.64 8.57002 29.93 8.84002 30.08L20.26 36.33C20.52 36.47 20.82 36.47 21.08 36.33L32.5 30.08C32.77 29.93 32.94 29.64 32.94 29.33V7.91003C32.94 7.52003 32.67 7.18003 32.29 7.08003L20.88 4.24003C20.81 4.23003 20.74 4.22003 20.67 4.22003Z" fill="#1DBB88"/>
<path d="M20.6701 22.1201C16.7501 22.1201 13.5601 18.9301 13.5601 15.0101C13.5601 11.0901 16.7501 7.90015 20.6701 7.90015C24.5901 7.90015 27.7801 11.0901 27.7801 15.0101C27.7801 18.9301 24.5901 22.1201 20.6701 22.1201ZM20.6701 10.9001C18.4001 10.9001 16.5601 12.7401 16.5601 15.0101C16.5601 17.2801 18.4001 19.1201 20.6701 19.1201C22.9401 19.1201 24.7801 17.2801 24.7801 15.0101C24.7801 12.7401 22.9401 10.9001 20.6701 10.9001Z" fill="#1DBB88"/>
<path d="M20.6699 31.2C19.9099 31.2 19.2999 30.59 19.2999 29.83V21.99C19.2999 21.23 19.9099 20.62 20.6699 20.62C21.4299 20.62 22.0399 21.23 22.0399 21.99V29.83C22.0399 30.59 21.4299 31.2 20.6699 31.2Z" fill="#1DBB88"/>
<path d="M20.96 27.8601C20.96 27.2901 21.42 26.8301 21.99 26.8301H23.66C24.23 26.8301 24.69 27.2901 24.69 27.8601C24.69 28.4301 24.23 28.8901 23.66 28.8901H21.99C21.42 28.8901 20.96 28.4301 20.96 27.8601ZM20.96 24.3701C20.96 23.8001 21.42 23.3401 21.99 23.3401H23.66C24.23 23.3401 24.69 23.8001 24.69 24.3701C24.69 24.9401 24.23 25.4001 23.66 25.4001H21.99C21.42 25.4001 20.96 24.9401 20.96 24.3701Z" fill="#1DBB88"/>
</svg>
