<svg width="24" height="24" viewBox="0 0 24 24" fill="none" xmlns="http://www.w3.org/2000/svg">
<rect opacity="0.01" width="24" height="24" fill="black"/>
<path fill-rule="evenodd" clip-rule="evenodd" d="M11.6213 2.52991C11.8558 2.39669 12.1446 2.39669 12.379 2.52991L20.1238 6.94016C20.357 7.07276 20.5 7.31697 20.5 7.58176V16.4004C20.5 16.6682 20.355 16.9155 20.1193 17.05L12.3871 21.4525C12.1479 21.5892 11.8518 21.5892 11.6132 21.4525L3.87702 17.0477C3.64374 16.9152 3.5 16.6698 3.5 16.4046V7.5982C3.5 7.3234 3.64861 7.06967 3.88997 6.93182L11.6213 2.52991ZM11.9739 16.6688C14.5851 16.6827 16.7549 14.5432 16.7403 11.9671C16.7269 9.40666 14.6244 7.33328 12.027 7.31863C9.41529 7.30423 7.24553 9.44417 7.25964 12.0203C7.27421 14.5812 9.37643 16.6542 11.9739 16.6688ZM12.0001 9.13819C13.598 9.13819 14.8946 10.4163 14.8946 11.9927C14.8946 13.7816 13.2246 15.1867 11.3376 14.7738C10.2622 14.5388 9.41807 13.7064 9.17912 12.6457C8.76115 10.7849 10.1852 9.13819 12.0001 9.13819Z" fill="#C7C7C7"/>
</svg>
