<svg width="24" height="24" viewBox="0 0 24 24" fill="none" xmlns="http://www.w3.org/2000/svg">
<path fill-rule="evenodd" clip-rule="evenodd" d="M14.8659 7.45198C14.8659 4.4452 12.8384 2 10.3481 2C7.85894 2 5.828 4.44407 5.828 7.44972C5.828 9.15932 6.46787 10.7266 7.58237 11.7605L7.67026 11.8475C7.87535 12.0633 8.08629 12.3751 8.08629 12.7469C8.08629 13.4825 7.23196 14.2147 5.85613 14.661L5.69206 14.7017C5.52831 14.7447 5.36575 14.7918 5.20454 14.8429C2.13528 15.7943 0.30005 17.5175 0.30005 19.4463C0.299897 19.519 0.314606 19.591 0.343337 19.6581C0.372067 19.7253 0.414255 19.7863 0.467484 19.8378C0.520714 19.8892 0.583941 19.93 0.653545 19.9578C0.72315 19.9857 0.797765 20 0.87312 20H13.4779C13.3654 19.8274 13.3 19.6214 13.3 19.4V17.6C13.3 16.9925 13.7925 16.5 14.4001 16.5H16.4001C16.621 16.5 16.8001 16.3209 16.8001 16.1V15.3647C16.4538 15.2075 16.0849 15.0617 15.6944 14.9288L15.5631 14.8983C15.3264 14.8373 15.0873 14.7751 14.8694 14.7017L14.6326 14.6169C13.4045 14.148 12.6521 13.4328 12.6521 12.713C12.6521 12.4034 12.7822 12.1107 13.0693 11.7977C13.182 11.6946 13.2902 11.5872 13.3939 11.4757C14.3291 10.4475 14.8659 8.98079 14.8659 7.45198ZM10.2362 12.7371L8.65936 16.9073L10.2356 18.8701L11.9396 16.9073L10.2362 12.7371Z" fill="white"/>
<path d="M18.2 14C17.9791 14 17.8 14.1791 17.8 14.4L17.8 17.4C17.8 17.4552 17.7553 17.5 17.7 17.5L14.7 17.5C14.4791 17.5 14.3 17.6791 14.3 17.9L14.3 19.1C14.3 19.3209 14.4791 19.5 14.7 19.5H17.7C17.7553 19.5 17.8 19.5448 17.8 19.6V22.6C17.8 22.8209 17.9791 23 18.2 23H19.4C19.621 23 19.8 22.8209 19.8 22.6V19.6C19.8 19.5448 19.8448 19.5 19.9 19.5L22.9 19.5C23.121 19.5 23.3 19.3209 23.3 19.1L23.3 17.9C23.3 17.6791 23.121 17.5 22.9 17.5L19.9 17.5C19.8448 17.5 19.8 17.4552 19.8 17.4V14.4C19.8 14.1791 19.621 14 19.4 14L18.2 14Z" fill="white"/>
</svg>
