<svg width="24" height="24" viewBox="0 0 24 24" fill="none" xmlns="http://www.w3.org/2000/svg">
<path fill-rule="evenodd" clip-rule="evenodd" d="M14.8659 7.45198C14.8659 4.4452 12.8384 2 10.3481 2C7.85894 2 5.828 4.44407 5.828 7.44972C5.828 9.15932 6.46787 10.7266 7.58237 11.7605L7.67026 11.8475C7.87535 12.0633 8.08629 12.3751 8.08629 12.7469C8.08629 13.4825 7.23196 14.2147 5.85613 14.661L5.69206 14.7017C5.52831 14.7447 5.36575 14.7918 5.20454 14.8429C2.13528 15.7943 0.30005 17.5175 0.30005 19.4463C0.299897 19.519 0.314606 19.591 0.343337 19.6581C0.372067 19.7253 0.414255 19.7863 0.467484 19.8378C0.520714 19.8892 0.583941 19.93 0.653545 19.9578C0.72315 19.9857 0.797765 20 0.87312 20H12.3503L12.0072 19.6569C11.6166 19.2663 11.6166 18.6332 12.0072 18.2426L13.4214 16.8284C13.8119 16.4379 14.4451 16.4379 14.8356 16.8284L15.967 17.9598C16.1232 18.116 16.3765 18.116 16.5327 17.9598L18.2867 16.2058C17.5841 15.7088 16.7121 15.2753 15.6944 14.9288L15.5631 14.8983C15.3264 14.8373 15.0873 14.7751 14.8694 14.7017L14.6326 14.6169C13.4045 14.148 12.6521 13.4328 12.6521 12.713C12.6521 12.4034 12.7822 12.1107 13.0693 11.7977C13.182 11.6946 13.2902 11.5872 13.3939 11.4757C14.3291 10.4475 14.8659 8.98079 14.8659 7.45198ZM10.2362 12.7371L8.65936 16.9073L10.2356 18.8701L11.9396 16.9073L10.2362 12.7371Z" fill="#666666"/>
<path fill-rule="evenodd" clip-rule="evenodd" d="M22.9582 15.6937C23.0364 15.6156 23.0364 15.489 22.9582 15.4109L21.8269 14.2795C21.7488 14.2014 21.6221 14.2014 21.544 14.2795L16.3495 19.474C16.2714 19.5521 16.1448 19.5521 16.0667 19.474L14.2282 17.6355C14.1501 17.5574 14.0235 17.5574 13.9454 17.6355L12.814 18.7669C12.7359 18.845 12.7359 18.9716 12.814 19.0497L14.7939 21.0296L15.9253 22.161C16.0815 22.3172 16.3347 22.3172 16.4909 22.161L17.6224 21.0296L22.9582 15.6937Z" fill="#666666"/>
</svg>
