
<svg width="128" height="128" viewBox="0 0 24 24" fill="none" xmlns="http://www.w3.org/2000/svg">
<rect opacity="0.01" width="24" height="24" fill="black"/>
<path fill-rule="evenodd" clip-rule="evenodd" d="M18.4565 4.77673C18.4658 4.78487 18.4745 4.79273 18.4828 4.80028C18.4522 4.82733 18.4139 4.85857 18.3662 4.89387C18.0662 5.1155 17.5554 5.36563 16.8164 5.59659C15.3525 6.05403 13.2566 6.35556 10.8889 6.35556C8.52114 6.35556 6.42523 6.05403 4.96143 5.59659C4.22238 5.36563 3.7116 5.1155 3.41162 4.89387C3.36384 4.85857 3.32556 4.82733 3.29502 4.80028C3.30325 4.79273 3.312 4.78487 3.32128 4.77673C3.53605 4.58814 3.93496 4.33933 4.57997 4.09361C4.69482 4.04986 4.81596 4.00678 4.94348 3.96459L4.96143 3.95897C6.42523 3.50153 8.52114 3.2 10.8889 3.2C13.2566 3.2 15.3525 3.50153 16.8164 3.95897L16.8343 3.96459C16.9618 4.00677 17.083 4.04986 17.1978 4.09361C17.8428 4.33933 18.2417 4.58814 18.4565 4.77673ZM10.8889 7.55556C14.1713 7.55556 17.0382 6.99956 18.5778 6.1725V9.63831C17.2271 10.3328 14.7094 11.2593 10.8889 11.2593C7.06834 11.2593 4.55063 10.3328 3.2 9.63831V6.1725C4.73957 6.99956 7.60645 7.55556 10.8889 7.55556ZM3.2 10.9706V14.7784C3.21787 14.8113 3.27583 14.8953 3.4413 15.0257C3.74081 15.2617 4.24856 15.5267 4.98297 15.7715C6.43923 16.257 8.52738 16.5778 10.8889 16.5778C13.2091 16.5778 15.2654 16.2681 16.7178 15.7969C16.5986 16.0445 16.5151 16.3125 16.4739 16.5943C16.0768 16.7484 15.7351 17.0134 15.4866 17.3512C14.1451 17.6219 12.5716 17.7778 10.8889 17.7778C7.60645 17.7778 4.73957 17.1847 3.2 16.3025V19.7025C3.22653 19.7368 3.28652 19.8014 3.41162 19.8939C3.7116 20.1155 4.22238 20.3656 4.96142 20.5966C6.42523 21.054 8.52113 21.3556 10.8889 21.3556C12.4265 21.3556 13.8494 21.2284 15.059 21.014C15.0826 21.4394 15.2259 21.8329 15.4557 22.1614C14.121 22.4117 12.5587 22.5556 10.8889 22.5556C5.97969 22.5556 2 21.3119 2 19.7778V14.8148V10.3424V8.8889V4.77778C2 4.0152 2.98332 3.3244 4.57533 2.82243C6.02763 2.34343 8.11483 2 10.8889 2C13.6629 2 15.7501 2.34343 17.2024 2.82243C18.7945 3.3244 19.7778 4.0152 19.7778 4.77778V8.8889V10.3424V14.2778C19.5983 14.2414 19.4125 14.2222 19.2222 14.2222C19.0004 14.2222 18.7846 14.2482 18.5778 14.2974V10.9706C18.4204 11.042 18.2534 11.114 18.0768 11.1858C16.4794 11.8349 14.104 12.4593 10.8889 12.4593C7.67374 12.4593 5.29839 11.8349 3.70103 11.1858C3.52434 11.114 3.35736 11.042 3.2 10.9706ZM3.18133 19.6738C3.18155 19.6738 3.18295 19.6761 3.18491 19.6809C3.18209 19.6762 3.18112 19.6738 3.18133 19.6738ZM17.0555 17C17.0555 15.8034 18.0256 14.8333 19.2222 14.8333C20.4188 14.8333 21.3889 15.8034 21.3889 17V17.1346C22.0339 17.345 22.5 17.9514 22.5 18.6667V20.8889C22.5 21.7787 21.7787 22.5 20.8889 22.5H17.5556C16.6658 22.5 15.9445 21.7787 15.9445 20.8889V18.6667C15.9445 17.9514 16.4105 17.345 17.0555 17.1346V17ZM19.2222 15.8333C18.5779 15.8333 18.0555 16.3556 18.0555 17V17.0555H20.3889V17C20.3889 16.3556 19.8665 15.8333 19.2222 15.8333ZM17.5556 18.0555C17.2181 18.0555 16.9445 18.3291 16.9445 18.6667V20.8889C16.9445 21.2264 17.2181 21.5 17.5556 21.5H20.8889C21.2264 21.5 21.5 21.2264 21.5 20.8889V18.6667C21.5 18.3291 21.2264 18.0555 20.8889 18.0555H17.5556ZM19.7778 19.2222C19.7778 19.404 19.6905 19.5654 19.5556 19.6667V20.5556C19.5556 20.7397 19.4063 20.8889 19.2222 20.8889C19.0382 20.8889 18.8889 20.7397 18.8889 20.5556V19.6667C18.754 19.5654 18.6667 19.404 18.6667 19.2222C18.6667 18.9154 18.9154 18.6667 19.2222 18.6667C19.5291 18.6667 19.7778 18.9154 19.7778 19.2222Z" fill="black"/>
</svg>
