<svg width="128" height="128" viewBox="0 0 24 24" fill="none" xmlns="http://www.w3.org/2000/svg">
<rect opacity="0.01" width="128" height="128" fill="black"/>
<path fill-rule="evenodd" clip-rule="evenodd" d="M6.81851 3.01981C7.23206 3.09577 7.57272 3.3825 7.8901 3.69981C8.26699 4.07446 8.69676 4.66486 9.06163 5.22282C9.43122 5.78798 9.77487 6.38273 9.97308 6.80003C10.1854 7.23801 10.3651 7.67972 10.3547 8.14424C10.3435 8.64687 10.1168 9.03776 9.86988 9.38076C9.81451 9.45824 9.74548 9.5507 9.68771 9.62806C9.65449 9.67256 9.62499 9.71207 9.60397 9.74086C9.52883 9.84374 9.48225 9.91461 9.45108 9.97365C9.40589 10.0592 9.39681 10.1049 9.41585 10.1959C9.43992 10.3085 9.59258 10.6249 9.96515 11.1254C10.3123 11.5919 10.7851 12.133 11.3252 12.6732C11.8659 13.2119 12.4075 13.6851 12.8744 14.0332C13.3764 14.4075 13.6924 14.5603 13.8038 14.5839L13.8064 14.5844L13.8091 14.585C13.896 14.604 13.9393 14.5963 14.0245 14.5514C14.0832 14.5205 14.1541 14.474 14.2566 14.3988C14.3005 14.3666 14.3453 14.3329 14.3962 14.2946C14.4041 14.2886 14.4122 14.2825 14.4204 14.2763C14.4798 14.2316 14.5458 14.1821 14.6161 14.1313L14.6171 14.1306C14.9621 13.8821 15.3534 13.6566 15.8564 13.6464C16.3198 13.637 16.7612 13.8163 17.1986 14.0263C17.6134 14.2243 18.2086 14.5694 18.7746 14.9397C19.3326 15.3049 19.9231 15.7341 20.297 16.1077C20.6166 16.4252 20.9059 16.7671 20.981 17.1838C21.0226 17.4148 20.989 17.6103 20.9466 17.7569C20.9232 17.8376 20.8743 17.9656 20.8553 18.0154C20.8514 18.0255 20.8488 18.0324 20.8478 18.035L20.843 18.0484C20.8306 18.0796 20.8428 18.0491 20.8371 18.0632L20.8361 18.0656C20.8354 18.0675 20.8344 18.0698 20.8333 18.0727C20.832 18.0757 20.8306 18.0792 20.8289 18.0833C20.8274 18.0869 20.8257 18.0909 20.8239 18.0954C20.816 18.1142 20.805 18.1403 20.7908 18.1726C20.7626 18.2371 20.7219 18.327 20.6698 18.434C20.5665 18.6458 20.4139 18.9338 20.22 19.2259C19.7566 19.9257 19.3072 20.403 18.6029 20.7294C18.2377 20.8986 17.7145 21.0706 16.9101 20.9703C16.1421 20.8745 15.1575 20.5358 13.8295 19.7896C11.7069 18.5985 10.0853 17.4178 8.33789 15.6703L8.33786 15.6703L8.33361 15.666L8.33358 15.666L8.32999 15.6624C8.32987 15.6623 8.32974 15.6621 8.32962 15.662C6.58146 13.9181 5.40085 12.2916 4.21029 10.1696C4.21025 10.1695 4.2102 10.1695 4.21016 10.1694C4.21013 10.1693 4.21009 10.1693 4.21006 10.1692C3.46405 8.84132 3.12547 7.85682 3.02973 7.08881C2.92944 6.28441 3.10136 5.76119 3.27058 5.396L3.27167 5.39365L3.27277 5.39132C3.60291 4.69115 4.07717 4.24329 4.7727 3.77957L4.77333 3.77915L4.77396 3.77874C5.06598 3.58486 5.35398 3.43223 5.56582 3.32896C5.67274 3.27684 5.76268 3.23611 5.82719 3.20789C5.8595 3.19376 5.88559 3.18269 5.9044 3.17484C5.91381 3.17091 5.92142 3.16777 5.92709 3.16546C5.92993 3.1643 5.93228 3.16334 5.93414 3.16259C5.94527 3.1581 5.92501 3.16623 5.95139 3.15568L5.96477 3.15089C5.96827 3.14964 5.97618 3.14663 5.9874 3.14236C6.03953 3.12251 6.163 3.0755 6.24606 3.05183C6.39371 3.00976 6.58872 2.9776 6.81851 3.01981ZM6.50429 4.6023C6.50325 4.60273 6.50213 4.6032 6.50093 4.6037C6.48965 4.60841 6.4716 4.61605 6.44777 4.62648C6.4 4.64737 6.3296 4.6792 6.24433 4.72076C6.07196 4.80479 5.84843 4.924 5.631 5.0683C5.06909 5.44301 4.84087 5.69724 4.67436 6.04938C4.59968 6.21089 4.50939 6.44147 4.56622 6.89725C4.62785 7.3916 4.86738 8.17803 5.56021 9.4112L5.56044 9.41161C6.69096 11.4267 7.78864 12.9353 9.42352 14.5662L9.42387 14.5665L9.42422 14.5669L9.42847 14.5711L9.4285 14.5711L9.43278 14.5754C11.0686 16.2114 12.5733 17.3092 14.5876 18.4395L14.5878 18.4396L14.588 18.4397C15.8211 19.1326 16.6074 19.3722 17.1017 19.4338C17.5597 19.4909 17.7902 19.3994 17.9518 19.3245C18.3008 19.1628 18.5537 18.9378 18.9295 18.3703L18.93 18.3695C19.0745 18.1519 19.1938 17.9281 19.2779 17.7555C19.3195 17.6703 19.3513 17.5999 19.3722 17.5521C19.3826 17.5282 19.3903 17.5102 19.395 17.4989C19.3955 17.4977 19.396 17.4966 19.3964 17.4955C19.4037 17.4755 19.4113 17.4554 19.4182 17.4371C19.3758 17.3838 19.3089 17.3086 19.205 17.2054L19.2041 17.2045L19.2032 17.2036C18.9474 16.9479 18.4679 16.5894 17.9268 16.2354C17.3937 15.8865 16.8611 15.5809 16.5307 15.4233L16.5298 15.4228L16.5289 15.4224C16.1014 15.2171 15.952 15.1931 15.8878 15.1944L15.8869 15.1945C15.8613 15.195 15.7867 15.1964 15.5225 15.3866C15.4801 15.4174 15.431 15.4544 15.3772 15.495C15.1974 15.6306 14.9644 15.8064 14.7463 15.9213C14.3931 16.1074 13.979 16.2067 13.4803 16.0981C13.0056 15.9967 12.4512 15.649 11.9489 15.2745C11.4105 14.8731 10.813 14.3486 10.2319 13.7696L10.2314 13.7691L10.2308 13.7686C9.64909 13.1868 9.12416 12.5888 8.72308 12.05C8.34775 11.5457 8.00138 10.9907 7.90093 10.5161L7.90069 10.515C7.79571 10.0154 7.89591 9.60277 8.08188 9.25061C8.19402 9.03825 8.36676 8.8075 8.49967 8.62997C8.54177 8.57373 8.57987 8.52283 8.61079 8.47955L8.61168 8.4783L8.61257 8.47706C8.80456 8.21049 8.80617 8.13583 8.80672 8.11044L8.80673 8.10971C8.80812 8.04741 8.78525 7.89902 8.57849 7.47282L8.577 7.46974L8.57554 7.46665C8.41805 7.13457 8.11366 6.6023 7.76574 6.07026C7.4125 5.53009 7.05466 5.05239 6.79794 4.79738L6.79701 4.79646L6.79608 4.79553C6.69125 4.6907 6.61508 4.62348 6.56136 4.58106C6.54338 4.58785 6.52368 4.59523 6.50429 4.6023Z" fill="black"/>
</svg>
