<?xml version="1.0" standalone="no"?><!DOCTYPE svg PUBLIC "-//W3C//DTD SVG 1.1//EN" "http://www.w3.org/Graphics/SVG/1.1/DTD/svg11.dtd">
<svg width="128" height="128" viewBox="0 0 24 24" fill="none" xmlns="http://www.w3.org/2000/svg">
<rect opacity="0.01" width="128" height="128" fill="black"/>
<path fill-rule="evenodd" clip-rule="evenodd" d="M20.4158 8.47674C20.4158 8.1567 20.1632 7.89644 19.8526 7.89644C19.6195 7.89644 19.4697 8.01017 19.4595 8.01975L16.8723 9.6341V14.365L19.4421 15.9668C19.4696 15.9898 19.6195 16.1035 19.8526 16.1035C20.1633 16.1035 20.4158 15.8432 20.4158 15.5232V8.47674ZM18.5484 17.2694C18.7843 17.4358 19.233 17.6793 19.8526 17.6793C21.0903 17.6793 22 16.6607 22 15.5232V8.47674C22 7.33915 21.0902 6.32069 19.8526 6.32069C19.4748 6.32069 19.1618 6.41291 18.9358 6.51161C18.8177 6.56317 18.6909 6.63079 18.5702 6.71451L16.6825 7.89244C16.627 6.59052 15.561 5.5 14.1914 5.5H4.49335C3.08646 5.5 2 6.6506 2 7.99904V16.001C2 17.3494 3.08644 18.5 4.49335 18.5H14.1914C15.5615 18.5 16.6277 17.4087 16.6825 16.1063L18.5484 17.2694ZM15.1006 16.001C15.1006 16.51 14.6926 16.9242 14.1914 16.9242H4.49335C3.99209 16.9242 3.58416 16.51 3.58416 16.001V7.99904C3.58416 7.48999 3.99209 7.07576 4.49335 7.07576H14.1914C14.6926 7.07576 15.1006 7.48999 15.1006 7.99904V16.001Z" fill="black"/>
</svg>
