<svg width="24" height="24" viewBox="0 0 24 24" fill="none" xmlns="http://www.w3.org/2000/svg">
<path d="M9.50001 10C11.433 10 13 8.433 13 6.5C13 4.56701 11.433 3 9.50001 3C7.56701 3 6.00001 4.56701 6.00001 6.5C6.00001 8.433 7.56701 10 9.50001 10Z" stroke="black" stroke-width="1.6" stroke-linecap="round" stroke-linejoin="round"/>
<path d="M16.3038 3.5C17.3202 4.11245 18 5.22685 18 6.5C18 7.77315 17.3202 8.88755 16.3038 9.5" stroke="black" stroke-width="1.6" stroke-linecap="round" stroke-linejoin="round"/>
<path d="M2.00001 20.4V21H17V20.4C17 18.1598 17 17.0397 16.5641 16.184C16.1806 15.4314 15.5686 14.8195 14.816 14.436C13.9603 14 12.8402 14 10.6 14H8.40001C6.15981 14 5.03971 14 4.18405 14.436C3.4314 14.8195 2.81947 15.4314 2.43598 16.184C2.00001 17.0397 2.00001 18.1598 2.00001 20.4Z" stroke="black" stroke-width="1.6" stroke-linecap="round" stroke-linejoin="round"/>
<path d="M22 21V20.4C22 18.1598 22 17.0397 21.564 16.1841C21.1805 15.4314 20.5686 14.8196 19.8159 14.4361" stroke="black" stroke-width="1.6" stroke-linecap="round" stroke-linejoin="round"/>
</svg>
