<?xml version="1.0" standalone="no"?><!DOCTYPE svg PUBLIC "-//W3C//DTD SVG 1.1//EN" "http://www.w3.org/Graphics/SVG/1.1/DTD/svg11.dtd">
<svg t="1692077898860" class="icon" viewBox="0 0 1024 1024" version="1.1" xmlns="http://www.w3.org/2000/svg" p-id="4900" data-spm-anchor-id="a313x.search_index.0.i0.51553a81ZnxTyi" width="128" height="128" xmlns:xlink="http://www.w3.org/1999/xlink">
<path d="M512 820.80000031c-36 0-69-3-102-12.12l-119.80000031 72.19999969a13.68 13.68 0 0 1-20.67999938-12.16000031L272 754.08000031c-108-66.76000031-180-175.99999969-180-297.32000062 0-200.23999969 189-364.08 420-364.08s420 163.84000031 420 364.08S743 820.80000031 512 820.80000031M512 32C248 32 32 223.11999969 32 456.75999969c0 133.48000031 69 254.83999969 180 330.68000062v190.71999938c0 10.8 11.71999969 17.44000031 20.80000031 11.76l189.19999969-117.51999938c30 6.07999969 60 9.12 90 9.12 264 0 480-191.16 480-424.8C992 220.16 776 32 512 32m240 364.08c-33 0-60 27.31999969-60 60.67999969 0 33.36 27 60.67999969 60 60.68000062s60-27.31999969 60-60.68000062c0-33.36-27-60.67999969-60-60.67999969m-240 0c-33 0-60 27.31999969-60 60.67999969 0 33.36 27 60.67999969 60 60.68000062s60-27.31999969 60-60.68000062c0-33.36-27-60.67999969-60-60.67999969m-240 0c-33 0-60 27.31999969-60 60.67999969 0 33.36 27 60.67999969 60 60.68000062s60-27.31999969 60-60.68000062c0-33.36-27-60.67999969-60-60.67999969" p-id="4901" fill="#000000"></path>
</svg>